<svg version="1.1" xmlns="http://www.w3.org/2000/svg" viewBox="0 0 1678.609375 635.8818138788739" width="1678.609375" height="635.8818138788739">
  <!-- svg-source:excalidraw -->
  
  <defs>
    <style class="style-fonts">
      @font-face {
        font-family: "Virgil";
        src: url("https://excalidraw.com/Virgil.woff2");
      }
      @font-face {
        font-family: "Cascadia";
        src: url("https://excalidraw.com/Cascadia.woff2");
      }
    </style>
  </defs>
  <rect x="0" y="0" width="1678.609375" height="635.8818138788739" fill="#ffffff"></rect><g stroke-linecap="round" transform="translate(815.709550491978 496.8818138788739) rotate(0 96.5 64.5)"><path d="M0 0 C42.85 0, 85.71 0, 193 0 M193 0 C193 49.23, 193 98.45, 193 129 M193 129 C129.31 129, 65.62 129, 0 129 M0 129 C0 95.64, 0 62.29, 0 0" stroke="#495057" stroke-width="1.5" fill="none" stroke-dasharray="8 9"></path></g><g transform="translate(825.209550491978 531.3818138788739) rotate(0 87 30)"><text x="87" y="14" font-family="Virgil, Segoe UI Emoji" font-size="16px" fill="#000000" text-anchor="middle" style="white-space: pre;" direction="ltr">Listen to changes on </text><text x="87" y="34" font-family="Virgil, Segoe UI Emoji" font-size="16px" fill="#000000" text-anchor="middle" style="white-space: pre;" direction="ltr">Quests, useful for </text><text x="87" y="54" font-family="Virgil, Segoe UI Emoji" font-size="16px" fill="#000000" text-anchor="middle" style="white-space: pre;" direction="ltr">real-time updates</text></g><g stroke-linecap="round" transform="translate(817.8359375 10) rotate(0 99.5 44.5)"><path d="M22.87 -1.23 L176.25 0.51 L187.34 1.41 L191.58 5.88 L197.97 15.54 L197.75 66.57 L198.62 76.34 L191.15 84.47 L175.72 87.63 L24.25 88.2 L10.81 85.95 L7.42 82.51 L0.52 71.39 L-1.53 15.68 L7.4 4.82 L11.08 2.64 L22.82 0.14" stroke="none" stroke-width="0" fill="#ced4da"></path><path d="M22.25 0 M22.25 0 C77.63 -0.03, 129.95 -2.58, 176.75 0 M22.25 0 C61.71 -1.42, 100.8 -0.74, 176.75 0 M176.75 0 C189.95 1.37, 198.43 5.9, 199 22.25 M176.75 0 C191.7 -1.08, 198.36 5.16, 199 22.25 M199 22.25 C197.16 35.42, 198.09 49.52, 199 66.75 M199 22.25 C199.41 30.95, 198.46 41.24, 199 66.75 M199 66.75 C198.18 79.96, 192.44 87.55, 176.75 89 M199 66.75 C198.8 80.72, 190.23 88.9, 176.75 89 M176.75 89 C139.69 86.04, 103.63 89.06, 22.25 89 M176.75 89 C137.58 88.84, 100.53 89.4, 22.25 89 M22.25 89 C6.53 87.48, -1.15 80.34, 0 66.75 M22.25 89 C5.47 88.94, 0.84 80.6, 0 66.75 M0 66.75 C0.81 58.6, 1.28 49.55, 0 22.25 M0 66.75 C-0.38 54.58, -1.23 41.56, 0 22.25 M0 22.25 C-1.71 5.9, 9.04 -1.48, 22.25 0 M0 22.25 C1.64 6.93, 5.56 1.75, 22.25 0" stroke="#000000" stroke-width="1" fill="none"></path></g><g transform="translate(849.3359375 42) rotate(0 68 12.5)"><text x="68" y="18" font-family="Virgil, Segoe UI Emoji" font-size="20px" fill="#000000" text-anchor="middle" style="white-space: pre;" direction="ltr">Events Queue</text></g><g stroke-linecap="round" transform="translate(1127.962890625 145.361328125) rotate(0 99.365234375 107.888671875)"><path d="M30.05 0.57 L174.07 -1.12 L185.51 5.38 L194.94 11.09 L197.49 16.18 L197.21 30.32 L200.26 185.33 L196.92 195.96 L195.82 201.42 L186.02 210.13 L182.63 214.92 L164.93 216.84 L32.32 217.59 L17.27 215.38 L12.16 212.77 L6.27 204.61 L1.68 197.35 L-0.58 184.96 L1.57 26 L2.89 16.12 L9.45 6.78 L19.76 3.2 L31.38 1" stroke="none" stroke-width="0" fill="#ced4da"></path><path d="M32 0 M32 0 C76.07 -0.12, 118.82 -0.04, 166.73 0 M32 0 C77.47 0.88, 123.74 -0.09, 166.73 0 M166.73 0 C186.83 -0.99, 199.39 12.4, 198.73 32 M166.73 0 C187.76 2.03, 200.98 9.67, 198.73 32 M198.73 32 C197.14 88.38, 197.83 143.5, 198.73 183.78 M198.73 32 C197.67 86.44, 199.53 140.22, 198.73 183.78 M198.73 183.78 C199.72 205.75, 186.63 216.28, 166.73 215.78 M198.73 183.78 C199.55 203.02, 186.82 214.64, 166.73 215.78 M166.73 215.78 C123.9 217.2, 86.39 214.98, 32 215.78 M166.73 215.78 C135.74 214.91, 104.54 215.08, 32 215.78 M32 215.78 C9.64 214.44, -1.96 206.67, 0 183.78 M32 215.78 C10.01 217.38, 1.45 207, 0 183.78 M0 183.78 C1.81 136.27, -0.08 84.15, 0 32 M0 183.78 C-0.17 146.13, -0.16 107.05, 0 32 M0 32 C-0.89 11.85, 11.78 1.71, 32 0 M0 32 C2.17 8.95, 9.89 -2.18, 32 0" stroke="#000000" stroke-width="1" fill="none"></path></g><g transform="translate(1153.328125 240.75) rotate(0 74 12.5)"><text x="74" y="18" font-family="Virgil, Segoe UI Emoji" font-size="20px" fill="#000000" text-anchor="middle" style="white-space: pre;" direction="ltr">Quests System</text></g><g stroke-linecap="round" transform="translate(1141.056640625 157.533203125) rotate(0 99.365234375 107.888671875)"><path d="M31.24 -1.41 L173.18 1.24 L184.32 6.24 L195.64 12.64 L196.24 17.2 L199.48 32.97 L197.86 184.22 L194.87 197.45 L192.88 205.16 L185.03 212.89 L182.58 212.63 L166.77 216.9 L30.54 217.42 L17.22 215.21 L13.11 210.74 L6.25 202.02 L0.03 198.26 L1.12 181.96 L-0.7 24.29 L0.87 19.81 L9 7.43 L18.62 2.63 L32.77 0.35" stroke="none" stroke-width="0" fill="#ced4da"></path><path d="M32 0 M32 0 C71.07 -1.38, 113.71 -0.32, 166.73 0 M32 0 C77.6 0.12, 122.3 0.12, 166.73 0 M166.73 0 C186.6 -0.84, 200.64 11.87, 198.73 32 M166.73 0 C188.58 -0.12, 199.75 9.14, 198.73 32 M198.73 32 C198.41 78.07, 201.1 124.11, 198.73 183.78 M198.73 32 C199.54 73.76, 200.06 115.23, 198.73 183.78 M198.73 183.78 C198.94 203.83, 186.33 214.02, 166.73 215.78 M198.73 183.78 C200.92 203.74, 186.22 217.5, 166.73 215.78 M166.73 215.78 C126.68 215.09, 88.18 216.86, 32 215.78 M166.73 215.78 C118.14 214.48, 67.59 214.4, 32 215.78 M32 215.78 C10.66 217.07, -1.74 207.07, 0 183.78 M32 215.78 C9.38 215.5, -1.69 203.47, 0 183.78 M0 183.78 C-0.38 129.02, -0.91 74.13, 0 32 M0 183.78 C0.41 130.13, 0.45 74.19, 0 32 M0 32 C0.19 11.73, 8.82 1.26, 32 0 M0 32 C-0.92 9.28, 8.72 1.64, 32 0" stroke="#000000" stroke-width="1" fill="none"></path></g><g transform="translate(1166.421875 252.921875) rotate(0 74 12.5)"><text x="74" y="18" font-family="Virgil, Segoe UI Emoji" font-size="20px" fill="#000000" text-anchor="middle" style="white-space: pre;" direction="ltr">Quests System</text></g><g stroke-linecap="round" transform="translate(1156.650390625 174.142578125) rotate(0 99.365234375 107.888671875)"><path d="M31.59 -0.42 L175.51 2.38 L187.39 2.97 L195.09 13.45 L195.74 18.47 L197.87 33.88 L200.23 185.61 L195.73 196.68 L195.28 203.01 L187.64 212.44 L178.87 214.09 L168.11 216.53 L33.31 214.39 L17.98 214.49 L11.68 209.94 L4.85 202.29 L2.42 199.16 L-0.3 184.34 L2.26 25.15 L3.29 19.2 L7.99 7.29 L16.45 1.71 L31.98 1.04" stroke="none" stroke-width="0" fill="#ced4da"></path><path d="M32 0 M32 0 C61.32 0, 93.61 1.88, 166.73 0 M32 0 C83.01 1.39, 134.76 0.57, 166.73 0 M166.73 0 C188.9 -0.98, 199.3 10, 198.73 32 M166.73 0 C188.83 1.63, 197 10.67, 198.73 32 M198.73 32 C199.86 81.13, 200.05 133.76, 198.73 183.78 M198.73 32 C198.39 65.35, 197.43 98.99, 198.73 183.78 M198.73 183.78 C199.61 205.28, 189.96 217.16, 166.73 215.78 M198.73 183.78 C197.29 203.99, 187.74 217.03, 166.73 215.78 M166.73 215.78 C117.76 214.46, 71.55 214.55, 32 215.78 M166.73 215.78 C125.8 216.45, 84.17 215.59, 32 215.78 M32 215.78 C11.97 216.27, -0.68 203.63, 0 183.78 M32 215.78 C11.94 214.87, -1.45 206.23, 0 183.78 M0 183.78 C1.5 147.63, 0.05 109.17, 0 32 M0 183.78 C1.02 143.39, -0.2 103.87, 0 32 M0 32 C1.31 8.74, 12.03 -1.81, 32 0 M0 32 C-0.9 9.72, 10.24 -1.19, 32 0" stroke="#000000" stroke-width="1" fill="none"></path></g><g transform="translate(1182.015625 269.53125) rotate(0 74 12.5)"><text x="74" y="18" font-family="Virgil, Segoe UI Emoji" font-size="20px" fill="#000000" text-anchor="middle" style="white-space: pre;" direction="ltr">Quests System</text></g><g stroke-linecap="round"><g transform="translate(689.2797634122901 157.484375) rotate(0 60.9113527082834 -53.711449483963634)"><path d="M-1.19 0.44 C12.71 -10.19, 62.82 -45.79, 83.52 -63.55 C104.22 -81.3, 116.54 -98.64, 123.01 -106.1 M0.39 -0.37 C14.17 -10.92, 62.53 -44.7, 82.9 -62.62 C103.26 -80.54, 115.98 -100.34, 122.6 -107.87" stroke="#000000" stroke-width="1" fill="none"></path></g><g transform="translate(689.2797634122901 157.484375) rotate(0 60.9113527082834 -53.711449483963634)"><path d="M114.01 -78.48 C114.17 -87.12, 120.83 -97.05, 120.73 -106.64 M113.5 -80.21 C116.36 -88.78, 119.12 -97.38, 121.97 -107.62" stroke="#000000" stroke-width="1" fill="none"></path></g><g transform="translate(689.2797634122901 157.484375) rotate(0 60.9113527082834 -53.711449483963634)"><path d="M97.97 -91.11 C103.15 -95.66, 114.8 -101.66, 120.73 -106.64 M97.46 -92.85 C105.21 -97.74, 112.75 -102.58, 121.97 -107.62" stroke="#000000" stroke-width="1" fill="none"></path></g></g><mask></mask><g transform="translate(678.9921875 85.23828125) rotate(0 39.5 12.5)"><text x="0" y="18" font-family="Virgil, Segoe UI Emoji" font-size="20px" fill="#000000" text-anchor="start" style="white-space: pre;" direction="ltr">Enqueue</text></g><g stroke-linecap="round"><g transform="translate(1019.0390625 52.125) rotate(0 55.23966579706922 43.76449547589294)"><path d="M1.07 -0.25 C8.76 5.79, 28.25 20.29, 46.45 35.15 C64.66 50.02, 99.68 80.21, 110.31 88.95 M0.17 -1.42 C7.66 4.83, 27.18 21.48, 45.39 36.23 C63.6 50.98, 98.62 78.38, 109.43 87.08" stroke="#000000" stroke-width="1" fill="none"></path></g><g transform="translate(1019.0390625 52.125) rotate(0 55.23966579706922 43.76449547589294)"><path d="M80.56 77.23 C88.68 80.06, 100.9 82.95, 108.7 85.95 M80.75 77.67 C87.04 80.02, 95.06 81.29, 109.85 87.29" stroke="#000000" stroke-width="1" fill="none"></path></g><g transform="translate(1019.0390625 52.125) rotate(0 55.23966579706922 43.76449547589294)"><path d="M93.32 61.15 C97.15 69.33, 105.22 77.44, 108.7 85.95 M93.51 61.6 C96.55 67.81, 101.47 72.99, 109.85 87.29" stroke="#000000" stroke-width="1" fill="none"></path></g></g><mask></mask><g transform="translate(1062.26171875 51.03515625) rotate(0 41.5 12.5)"><text x="0" y="18" font-family="Virgil, Segoe UI Emoji" font-size="20px" fill="#000000" text-anchor="start" style="white-space: pre;" direction="ltr">Dequeue</text></g><g stroke-linecap="round" transform="translate(813.24609375 425.5859375) rotate(0 99.5 44.5)"><path d="M21.8 1.98 L175.92 1.81 L187.06 0.34 L193.71 4.95 L200.44 15.55 L200.87 67.69 L198.17 76.91 L189.63 85.62 L175.95 87.53 L21.15 90.18 L13.48 88.32 L7.4 82.09 L-1.62 72.87 L0.62 18.68 L5.11 4.72 L13.82 1.11 L21.81 1.52" stroke="none" stroke-width="0" fill="#ced4da"></path><path d="M22.25 0 M22.25 0 C60.87 -2.57, 98.8 -0.8, 176.75 0 M22.25 0 C78.63 -0.08, 133.81 -0.67, 176.75 0 M176.75 0 C190.28 1.88, 198.47 6.05, 199 22.25 M176.75 0 C190.41 0.2, 200.85 6.38, 199 22.25 M199 22.25 C197.84 39.54, 199.6 57.11, 199 66.75 M199 22.25 C198.92 37.12, 199.07 53.28, 199 66.75 M199 66.75 C198.95 79.74, 193.08 88.29, 176.75 89 M199 66.75 C201.28 83.79, 193.12 91.21, 176.75 89 M176.75 89 C122.03 92.13, 69.66 90.62, 22.25 89 M176.75 89 C116.83 89.78, 54.95 91.24, 22.25 89 M22.25 89 C7.16 87.84, -1.17 79.9, 0 66.75 M22.25 89 C9.03 89.67, 0.03 83.53, 0 66.75 M0 66.75 C-1.64 51.94, -0.04 38.92, 0 22.25 M0 66.75 C0.7 53.71, -0.12 40.26, 0 22.25 M0 22.25 C-1.22 6.11, 9.19 1.17, 22.25 0 M0 22.25 C1.75 9.67, 7.83 -2.13, 22.25 0" stroke="#000000" stroke-width="1" fill="none"></path></g><g transform="translate(837.24609375 457.5859375) rotate(0 75.5 12.5)"><text x="75.5" y="18" font-family="Virgil, Segoe UI Emoji" font-size="20px" fill="#000000" text-anchor="middle" style="white-space: pre;" direction="ltr">Quest Channels</text></g><g stroke-linecap="round"><g transform="translate(1147.8893787312318 397.60544763761936) rotate(0 -64.66137760672228 38.770772705423894)"><path d="M-0.15 -0.39 C-12.93 5.61, -56.09 22.78, -77.49 35.85 C-98.88 48.91, -120.14 71.07, -128.51 78.01 M-1.69 -1.64 C-14.48 4.49, -56.74 23.44, -77.99 36.92 C-99.24 50.39, -121.02 72.31, -129.17 79.19" stroke="#000000" stroke-width="1" fill="none"></path></g><g transform="translate(1147.8893787312318 397.60544763761936) rotate(0 -64.66137760672228 38.770772705423894)"><path d="M-115.8 54.08 C-119.94 59.15, -122.18 66.74, -130.52 78.56 M-114.93 52.73 C-119.11 59.97, -124.26 68.57, -128.35 79" stroke="#000000" stroke-width="1" fill="none"></path></g><g transform="translate(1147.8893787312318 397.60544763761936) rotate(0 -64.66137760672228 38.770772705423894)"><path d="M-102.04 69.31 C-109.37 70.8, -114.83 74.84, -130.52 78.56 M-101.16 67.95 C-109.5 70.43, -118.85 74.39, -128.35 79" stroke="#000000" stroke-width="1" fill="none"></path></g></g><mask></mask><g stroke-linecap="round"><g transform="translate(806.19921875 476.37109375) rotate(0 -49.61861454235367 -50.23599961886163)"><path d="M-1.19 1.07 C-5.58 -4.79, -10.57 -19.22, -26.85 -36.32 C-43.12 -53.42, -86.87 -90.77, -98.82 -101.54 M0.39 0.59 C-4.14 -4.99, -11.23 -18.08, -27.9 -34.95 C-44.57 -51.83, -87.9 -89.81, -99.63 -100.65" stroke="#000000" stroke-width="1" fill="none"></path></g><g transform="translate(806.19921875 476.37109375) rotate(0 -49.61861454235367 -50.23599961886163)"><path d="M-70.03 -89.74 C-79.53 -92.75, -87.63 -95.3, -100.05 -100.44 M-71.7 -90.29 C-82.69 -93.19, -91.62 -98.27, -98.66 -99.94" stroke="#000000" stroke-width="1" fill="none"></path></g><g transform="translate(806.19921875 476.37109375) rotate(0 -49.61861454235367 -50.23599961886163)"><path d="M-83.77 -74.5 C-89.52 -81.37, -94.02 -87.9, -100.05 -100.44 M-85.44 -75.04 C-91.46 -83.52, -95.37 -94.17, -98.66 -99.94" stroke="#000000" stroke-width="1" fill="none"></path></g></g><mask></mask><g stroke-linecap="round" transform="translate(829.7890625 173.95703125) rotate(0 85.833984375 85.98828125)"><path d="M106.43 2.33 C117.44 3.99, 129.13 12.05, 138.46 19.14 C147.79 26.23, 157.07 34.7, 162.42 44.86 C167.76 55.03, 170 68.4, 170.55 80.12 C171.11 91.84, 169.7 104.38, 165.74 115.2 C161.79 126.03, 154.86 136.55, 146.82 145.05 C138.78 153.56, 128.16 161.78, 117.51 166.25 C106.85 170.71, 94.53 172.23, 82.87 171.83 C71.22 171.44, 58.08 168.92, 47.56 163.88 C37.05 158.84, 27.15 150.73, 19.77 141.58 C12.38 132.42, 6.28 120.19, 3.26 108.94 C0.24 97.69, 0.04 85.54, 1.65 74.07 C3.25 62.6, 6.77 50.1, 12.88 40.13 C18.99 30.16, 28.44 20.87, 38.3 14.26 C48.16 7.65, 59.87 2.17, 72.02 0.48 C84.17 -1.22, 104.2 2.9, 111.21 4.09 C118.21 5.29, 114.51 6.24, 114.07 7.65 M55.67 5.51 C65.48 0.47, 78.54 0.85, 89.97 1.36 C101.4 1.87, 113.99 3.31, 124.26 8.55 C134.53 13.8, 144.19 23.42, 151.61 32.84 C159.03 42.26, 165.55 53.64, 168.78 65.08 C172.01 76.53, 172.75 89.98, 171.01 101.52 C169.27 113.06, 164.74 125.03, 158.35 134.31 C151.95 143.59, 142.36 151.07, 132.64 157.21 C122.91 163.35, 111.44 169.25, 100.01 171.15 C88.58 173.05, 75.61 171.53, 64.06 168.59 C52.52 165.64, 39.72 160.77, 30.74 153.46 C21.76 146.16, 15.19 135.4, 10.17 124.75 C5.16 114.09, 1.38 101.19, 0.67 89.53 C-0.05 77.87, 1.75 65.56, 5.9 54.79 C10.06 44.03, 17.33 33.18, 25.61 24.95 C33.9 16.72, 50.45 8.36, 55.63 5.39 C60.81 2.43, 56.14 5.72, 56.71 7.16" stroke="none" stroke-width="0" fill="#ced4da"></path><path d="M54.59 5.23 C64.5 0.11, 78.54 -0.22, 90.11 0.55 C101.69 1.32, 113.7 4.83, 124.05 9.85 C134.4 14.86, 144.66 21.68, 152.23 30.61 C159.8 39.54, 166.26 52.11, 169.46 63.43 C172.66 74.74, 173.3 86.98, 171.43 98.53 C169.57 110.08, 164.57 122.75, 158.28 132.73 C152 142.71, 143.48 152.12, 133.71 158.41 C123.94 164.7, 111.17 168.7, 99.66 170.47 C88.15 172.23, 75.96 171.79, 64.67 168.98 C53.37 166.17, 41.15 160.86, 31.9 153.59 C22.65 146.32, 14.31 135.59, 9.17 125.36 C4.02 115.14, 1.69 103.77, 1.01 92.24 C0.34 80.71, 1.11 67.21, 5.13 56.17 C9.14 45.14, 15.57 34.8, 25.09 26.03 C34.6 17.27, 54.27 7.3, 62.2 3.59 C70.14 -0.13, 72.04 2.41, 72.69 3.73 M122.62 8.81 C133.46 12.21, 143.81 19.66, 151.5 28.34 C159.2 37.03, 165.33 49.66, 168.8 60.91 C172.26 72.16, 173.84 84.44, 172.29 95.86 C170.75 107.28, 165.95 119.5, 159.54 129.42 C153.12 139.35, 143.61 148.52, 133.8 155.41 C123.98 162.3, 111.76 168.5, 100.64 170.75 C89.52 173.01, 78.11 171.74, 67.1 168.94 C56.09 166.15, 44.15 160.98, 34.6 154 C25.05 147.01, 15.47 137.13, 9.79 127.03 C4.11 116.94, 1.15 105.01, 0.5 93.44 C-0.14 81.87, 2.31 68.75, 5.94 57.61 C9.57 46.46, 14.64 34.92, 22.27 26.56 C29.9 18.2, 40.77 12, 51.71 7.45 C62.65 2.89, 76.07 -0.97, 87.92 -0.77 C99.78 -0.57, 117.25 6.76, 122.84 8.67 C128.43 10.57, 122.04 9.24, 121.44 10.66" stroke="#000000" stroke-width="1" fill="none"></path></g><g transform="translate(900.123046875 247.4453125) rotate(0 15.5 12.5)"><text x="15.5" y="18" font-family="Virgil, Segoe UI Emoji" font-size="20px" fill="#000000" text-anchor="middle" style="white-space: pre;" direction="ltr">DB</text></g><g stroke-linecap="round"><g transform="translate(715.26171875 262.16455248283535) rotate(0 50.08678518667142 -0.21307230605543737)"><path d="M1.04 -0.71 C17.61 -1.01, 83.72 -1.74, 100.05 -1.96 M0.13 1.53 C16.5 1.37, 82.33 -0.42, 99.21 -0.88" stroke="#000000" stroke-width="1" fill="none"></path></g><g transform="translate(715.26171875 262.16455248283535) rotate(0 50.08678518667142 -0.21307230605543737)"><path d="M70.12 10.5 C79.72 4.62, 89.46 0.39, 99.62 0.25 M70.75 9.87 C78.34 7.64, 85.94 4.67, 98.56 -1.26" stroke="#000000" stroke-width="1" fill="none"></path></g><g transform="translate(715.26171875 262.16455248283535) rotate(0 50.08678518667142 -0.21307230605543737)"><path d="M69.57 -10.01 C79.34 -8.65, 89.27 -5.64, 99.62 0.25 M70.2 -10.64 C78.02 -7.76, 85.75 -5.63, 98.56 -1.26" stroke="#000000" stroke-width="1" fill="none"></path></g></g><mask></mask><g stroke-linecap="round"><g transform="translate(1023.041458498387 261.14946824730737) rotate(0 41.26148609926304 -0.6901912105756765)"><path d="M0.01 0.31 C13.46 0.46, 68.03 0.05, 81.82 -0.05 M-1.44 -0.58 C12.27 -0.67, 70.07 -1.44, 83.96 -1.72" stroke="#000000" stroke-width="1" fill="none"></path></g><g transform="translate(1023.041458498387 261.14946824730737) rotate(0 41.26148609926304 -0.6901912105756765)"><path d="M56.45 7.18 C68.49 4.54, 79.15 -0.88, 83.3 -0.76 M56.75 8.27 C63.66 5.06, 73.18 2.63, 84.47 -1.39" stroke="#000000" stroke-width="1" fill="none"></path></g><g transform="translate(1023.041458498387 261.14946824730737) rotate(0 41.26148609926304 -0.6901912105756765)"><path d="M56.12 -13.34 C68.12 -7.9, 78.92 -5.25, 83.3 -0.76 M56.42 -12.25 C63.44 -9.26, 73.05 -5.5, 84.47 -1.39" stroke="#000000" stroke-width="1" fill="none"></path></g></g><mask></mask><g stroke-linecap="round"><g transform="translate(1107.5101635724727 237.12176823909442) rotate(0 -41.67264761810662 0.3717585431153907)"><path d="M1.12 -0.11 C-12.65 0.16, -69.33 0.27, -83.56 0.69 M0.24 -1.21 C-13.59 -0.7, -70.19 1.63, -84.46 1.95" stroke="#000000" stroke-width="1" fill="none"></path></g><g transform="translate(1107.5101635724727 237.12176823909442) rotate(0 -41.67264761810662 0.3717585431153907)"><path d="M-56.8 -9.07 C-63.71 -7.54, -66.98 -2.53, -83.61 0.64 M-56.76 -9.96 C-64.05 -7.16, -70.51 -3.56, -84.78 1.32" stroke="#000000" stroke-width="1" fill="none"></path></g><g transform="translate(1107.5101635724727 237.12176823909442) rotate(0 -41.67264761810662 0.3717585431153907)"><path d="M-56.12 11.44 C-63.03 8.46, -66.45 8.95, -83.61 0.64 M-56.08 10.55 C-63.46 8.28, -70.08 6.83, -84.78 1.32" stroke="#000000" stroke-width="1" fill="none"></path></g></g><mask></mask><g stroke-linecap="round"><g transform="translate(810.5347886466553 240.80737376942045) rotate(0 -46.94294294028515 0.8808331701141583)"><path d="M0.96 -0.9 C-14.76 -0.51, -78.39 2.03, -94.13 2.66 M0 1.25 C-15.85 1.28, -79.24 1.03, -94.84 1.02" stroke="#000000" stroke-width="1" fill="none"></path></g><g transform="translate(810.5347886466553 240.80737376942045) rotate(0 -46.94294294028515 0.8808331701141583)"><path d="M-68.12 -8.42 C-73.89 -3.88, -82.31 -3.27, -94.57 0.66 M-65.65 -8.58 C-75.79 -4.76, -86.41 -1.12, -95.4 1.32" stroke="#000000" stroke-width="1" fill="none"></path></g><g transform="translate(810.5347886466553 240.80737376942045) rotate(0 -46.94294294028515 0.8808331701141583)"><path d="M-68.17 12.1 C-73.98 10.22, -82.38 4.4, -94.57 0.66 M-65.7 11.94 C-75.82 8.42, -86.42 4.72, -95.4 1.32" stroke="#000000" stroke-width="1" fill="none"></path></g></g><mask></mask><g stroke-linecap="round" transform="translate(10 212.50390625) rotate(0 63 62)"><path d="M79.71 17.14 L120.79 56.51 L123.65 63.85 L117.05 68.42 L109.1 77.16 L72.87 111.71 L65.81 119.46 L58.98 115.13 L17.61 78.87 L6.32 68.87 L4.39 62.78 L9.84 53.3 L59.04 5.22 L67.37 5.89 L80.76 15.26" stroke="none" stroke-width="0" fill="#ced4da"></path><path d="M80 15.75 M80 15.75 C87.55 24.03, 93.86 29.13, 110 47.25 M80 15.75 C88.42 23.75, 94.95 31.66, 110 47.25 M110 47.25 C127.35 61.01, 124.14 62.63, 110 78.75 M110 47.25 C125.02 62.05, 126.68 63.4, 110 78.75 M110 78.75 C99.1 89.56, 86.45 100.26, 80 108.25 M110 78.75 C98.61 90.7, 86.42 101.71, 80 108.25 M80 108.25 C62.22 125.79, 65.36 123.01, 48 108.25 M80 108.25 C62.81 126.25, 65.47 122.27, 48 108.25 M48 108.25 C37.17 100.62, 28.02 90.91, 16 78.75 M48 108.25 C40.74 101.83, 34.08 96.42, 16 78.75 M16 78.75 C-0.47 63.53, -0.84 63.13, 16 47.25 M16 78.75 C-1.91 63.57, -2.03 61.57, 16 47.25 M16 47.25 C26.64 37.3, 36.24 30.16, 48 15.75 M16 47.25 C24.51 38.54, 33.61 29.55, 48 15.75 M48 15.75 C65.79 -0.57, 63.49 1.46, 80 15.75 M48 15.75 C62.05 -1.3, 63.08 -0.93, 80 15.75" stroke="#000000" stroke-width="1" fill="none"></path></g><g transform="translate(45.5 262.00390625) rotate(0 27.5 12.5)"><text x="27.5" y="18" font-family="Virgil, Segoe UI Emoji" font-size="20px" fill="#000000" text-anchor="middle" style="white-space: pre;" direction="ltr">Client</text></g><g stroke-linecap="round" transform="translate(472.072265625 144.962890625) rotate(0 99.365234375 107.888671875)"><path d="M32.42 1.87 L176.02 0.85 L186.27 5.15 L196.15 11.58 L197.84 17.44 L199.07 32.92 L200.26 185.74 L196.65 197.92 L192.38 203.31 L186.7 212.35 L179.49 215.27 L165.47 213.88 L30.06 214.04 L18.43 213.46 L14.23 209.62 L4.66 203.61 L0.35 199.54 L1.49 184.39 L-0.05 25.13 L2.92 17.18 L7.51 7.13 L17.89 2.73 L31.93 1.49" stroke="none" stroke-width="0" fill="#ced4da"></path><path d="M32 0 M32 0 C77.69 -1.81, 125.3 -2.54, 166.73 0 M32 0 C66.56 -1.35, 100.01 -1.34, 166.73 0 M166.73 0 C188.26 0.35, 198.59 8.85, 198.73 32 M166.73 0 C186.17 -0.37, 197.34 10.53, 198.73 32 M198.73 32 C199.16 70.03, 198.66 109.03, 198.73 183.78 M198.73 32 C197.38 89.16, 196.8 145.46, 198.73 183.78 M198.73 183.78 C197.93 206.59, 190.04 217.04, 166.73 215.78 M198.73 183.78 C198.96 205.19, 187.36 215.02, 166.73 215.78 M166.73 215.78 C133.13 216.83, 99.24 216.15, 32 215.78 M166.73 215.78 C131.76 216.39, 97.81 216.24, 32 215.78 M32 215.78 C10.08 217.51, 0.7 203.59, 0 183.78 M32 215.78 C8.39 216.42, 0.47 205.96, 0 183.78 M0 183.78 C-1.28 149.49, -0.85 118.17, 0 32 M0 183.78 C-0.2 152.34, -0.59 121.72, 0 32 M0 32 C1.9 8.75, 9.25 -0.38, 32 0 M0 32 C0.26 12.29, 11.26 0.45, 32 0" stroke="#000000" stroke-width="1" fill="none"></path></g><g transform="translate(512.4375 240.3515625) rotate(0 59 12.5)"><text x="59" y="18" font-family="Virgil, Segoe UI Emoji" font-size="20px" fill="#000000" text-anchor="middle" style="white-space: pre;" direction="ltr">Quests API</text></g><g stroke-linecap="round" transform="translate(484.083984375 154.685546875) rotate(0 99.365234375 107.888671875)"><path d="M32.65 1.92 L173.31 1.61 L185.67 4.84 L195.15 14.03 L198.7 17.92 L198.88 30.15 L198.76 184.24 L197.81 196.54 L195.72 202.02 L184.34 209.34 L179 214.21 L166.42 217.51 L30.34 215.93 L18.33 212.12 L14.26 212.76 L5.11 202.73 L2.63 198.7 L-0.82 183.28 L-0.37 24.39 L2.73 17.93 L9.49 8.78 L18.03 3.06 L32 -1.09" stroke="none" stroke-width="0" fill="#ced4da"></path><path d="M32 0 M32 0 C83.75 1.9, 139.98 -0.37, 166.73 0 M32 0 C77.89 -0.2, 122.53 -0.96, 166.73 0 M166.73 0 C187.74 -1.21, 198.61 9.66, 198.73 32 M166.73 0 C189.89 1.82, 197.84 10.79, 198.73 32 M198.73 32 C198.21 67.75, 199.07 105.53, 198.73 183.78 M198.73 32 C200.79 65.52, 200.69 97.16, 198.73 183.78 M198.73 183.78 C198.8 204.5, 187.4 214.91, 166.73 215.78 M198.73 183.78 C197.5 204.16, 189.15 217.63, 166.73 215.78 M166.73 215.78 C113.73 216.84, 63.51 214.2, 32 215.78 M166.73 215.78 C124.33 215.73, 79.42 214.39, 32 215.78 M32 215.78 C11.23 216.18, 0.74 203.45, 0 183.78 M32 215.78 C11.56 217.92, -0.79 203.59, 0 183.78 M0 183.78 C0 139.12, -0.29 95.73, 0 32 M0 183.78 C-0.69 143.82, 0.08 105.39, 0 32 M0 32 C1.41 11.18, 11.06 1.93, 32 0 M0 32 C1.29 12.87, 10.27 -1.21, 32 0" stroke="#000000" stroke-width="1" fill="none"></path></g><g transform="translate(524.44921875 250.07421875) rotate(0 59 12.5)"><text x="59" y="18" font-family="Virgil, Segoe UI Emoji" font-size="20px" fill="#000000" text-anchor="middle" style="white-space: pre;" direction="ltr">Quests API</text></g><g stroke-linecap="round" transform="translate(498.412109375 160.927734375) rotate(0 99.365234375 107.888671875)"><path d="M30.29 -0.2 L173.45 1.05 L184.32 5.8 L194.6 12.74 L195.94 16.34 L200.31 31.18 L197.11 184.63 L195.29 197.6 L193.48 202.1 L186.14 209.97 L181.15 212.07 L165.94 214.14 L31.41 217.15 L16.96 213.24 L13.21 209.52 L3.09 203.98 L1.71 196.89 L-1.52 182.63 L-0.74 22.8 L1.95 18.73 L7.15 6.16 L19.25 1.23 L33.09 1.1" stroke="none" stroke-width="0" fill="#ced4da"></path><path d="M32 0 M32 0 C84.53 1.18, 133.78 1.37, 166.73 0 M32 0 C59.93 1.96, 88.63 1.86, 166.73 0 M166.73 0 C187.64 -1.62, 200.25 11.23, 198.73 32 M166.73 0 C187.36 -0.83, 200.5 11.78, 198.73 32 M198.73 32 C200.02 77.19, 198.74 120.26, 198.73 183.78 M198.73 32 C199.19 85.63, 198.28 138.36, 198.73 183.78 M198.73 183.78 C196.88 205.91, 186.6 217.53, 166.73 215.78 M198.73 183.78 C196.68 203.65, 188.28 216.16, 166.73 215.78 M166.73 215.78 C138.02 215.89, 108.25 217.04, 32 215.78 M166.73 215.78 C128.6 214.28, 88.48 214.44, 32 215.78 M32 215.78 C9.35 217.24, 0.84 205.01, 0 183.78 M32 215.78 C11.08 213.57, 0.01 204.7, 0 183.78 M0 183.78 C0.32 133.51, -0.1 81.7, 0 32 M0 183.78 C-1.46 145.2, -0.82 104.65, 0 32 M0 32 C0.58 9.56, 10.21 0.13, 32 0 M0 32 C1.2 9.11, 11.52 -2.27, 32 0" stroke="#000000" stroke-width="1" fill="none"></path></g><g transform="translate(538.77734375 256.31640625) rotate(0 59 12.5)"><text x="59" y="18" font-family="Virgil, Segoe UI Emoji" font-size="20px" fill="#000000" text-anchor="middle" style="white-space: pre;" direction="ltr">Quests API</text></g><g stroke-linecap="round" transform="translate(250.08984375 35.796875) rotate(0 48.564453125 232.390625)"><path d="M25.37 1.36 L71.37 -1.79 L85.35 0.92 L88.76 2.32 L94.53 8.1 L96.81 17.07 L97.45 439.15 L95.04 456.87 L88.57 459.48 L77.51 466.13 L25.48 463.31 L12.76 464.72 L7.86 459.08 L3.3 455.49 L1.78 445.23 L-0.43 22.61 L2.3 14.55 L6.5 7.22 L12.43 0.71 L25.11 -1.07" stroke="none" stroke-width="0" fill="#ced4da"></path><path d="M24.28 0 M24.28 0 C38.32 0.38, 55.66 -1.79, 72.85 0 M24.28 0 C41.26 -1.16, 59.17 0.3, 72.85 0 M72.85 0 C88.27 1.38, 96.27 8.2, 97.13 24.28 M72.85 0 C87.8 0.56, 96.72 8.76, 97.13 24.28 M97.13 24.28 C97.24 181.71, 96.81 341.41, 97.13 440.5 M97.13 24.28 C96.67 177.39, 96.3 331.25, 97.13 440.5 M97.13 440.5 C95.81 458.55, 88.33 465.31, 72.85 464.78 M97.13 440.5 C99.21 458.94, 89.28 464.16, 72.85 464.78 M72.85 464.78 C63.76 467.16, 52.26 464.59, 24.28 464.78 M72.85 464.78 C55.83 465.72, 38.35 465.71, 24.28 464.78 M24.28 464.78 C7.17 463.89, -1.71 455.14, 0 440.5 M24.28 464.78 C7.99 463.9, -0.34 455.73, 0 440.5 M0 440.5 C0.92 275.33, 0.29 108.94, 0 24.28 M0 440.5 C0.19 331.3, -0.01 221.77, 0 24.28 M0 24.28 C1.66 6.26, 8.8 -1.73, 24.28 0 M0 24.28 C-1.43 8.62, 6.08 -0.04, 24.28 0" stroke="#000000" stroke-width="1" fill="none"></path></g><g transform="translate(271.154296875 255.6875) rotate(0 27.5 12.5)"><text x="27.5" y="18" font-family="Virgil, Segoe UI Emoji" font-size="20px" fill="#000000" text-anchor="middle" style="white-space: pre;" direction="ltr">Proxy</text></g><g stroke-linecap="round"><g transform="translate(136.6006771178602 289.48486498283546) rotate(0 50.14123534176286 -0.9296358856119582)"><path d="M-0.37 0.15 C16.31 -0.12, 83.8 -1.87, 100.65 -2.01 M1.64 -0.81 C18.18 -0.93, 83.67 -0.63, 100.13 -0.96" stroke="#000000" stroke-width="1" fill="none"></path></g><g transform="translate(136.6006771178602 289.48486498283546) rotate(0 50.14123534176286 -0.9296358856119582)"><path d="M72.26 10.84 C80.31 7.37, 92.33 2.01, 100.59 -0.95 M72.4 10.36 C77.1 7.64, 84.01 5.18, 100.63 -0.79" stroke="#000000" stroke-width="1" fill="none"></path></g><g transform="translate(136.6006771178602 289.48486498283546) rotate(0 50.14123534176286 -0.9296358856119582)"><path d="M72.13 -9.68 C80.16 -5.99, 92.23 -4.18, 100.59 -0.95 M72.27 -10.17 C76.99 -8.59, 83.92 -6.75, 100.63 -0.79" stroke="#000000" stroke-width="1" fill="none"></path></g></g><mask></mask><g stroke-linecap="round"><g transform="translate(231.87374701451552 268.12768626942034) rotate(0 -47.44483189641469 0.7809913661545806)"><path d="M0.87 0.39 C-15.05 0.88, -78.83 1.97, -94.73 2.01 M-0.13 -0.44 C-16.3 -0.26, -79.9 -0.28, -95.76 0.03" stroke="#000000" stroke-width="1" fill="none"></path></g><g transform="translate(231.87374701451552 268.12768626942034) rotate(0 -47.44483189641469 0.7809913661545806)"><path d="M-67 -10.72 C-77.63 -6.38, -90.26 -2.67, -94.96 0.82 M-67.43 -10.27 C-78.16 -6.08, -90.29 -2.65, -96.66 0.36" stroke="#000000" stroke-width="1" fill="none"></path></g><g transform="translate(231.87374701451552 268.12768626942034) rotate(0 -47.44483189641469 0.7809913661545806)"><path d="M-66.83 9.8 C-77.37 6.58, -90.06 2.73, -94.96 0.82 M-67.27 10.25 C-77.89 6.47, -90.08 1.94, -96.66 0.36" stroke="#000000" stroke-width="1" fill="none"></path></g></g><mask></mask><g stroke-linecap="round"><g transform="translate(358.2569271178602 285.05517748283546) rotate(0 49.76170297862285 -0.003552494980112897)"><path d="M-0.03 -0.95 C16.89 -1.19, 84.51 -1.21, 101.02 -1.11 M-1.5 1.16 C15.41 1.1, 83.53 1, 100.7 0.41" stroke="#000000" stroke-width="1" fill="none"></path></g><g transform="translate(358.2569271178602 285.05517748283546) rotate(0 49.76170297862285 -0.003552494980112897)"><path d="M71.08 13.1 C79.85 7.07, 88.33 6.21, 102.21 1.79 M72.06 10.92 C81.49 8.89, 88.84 4.35, 101.14 0.23" stroke="#000000" stroke-width="1" fill="none"></path></g><g transform="translate(358.2569271178602 285.05517748283546) rotate(0 49.76170297862285 -0.003552494980112897)"><path d="M70.77 -7.42 C79.67 -8.14, 88.22 -3.69, 102.21 1.79 M71.74 -9.6 C81.25 -5.84, 88.7 -4.58, 101.14 0.23" stroke="#000000" stroke-width="1" fill="none"></path></g></g><mask></mask><g stroke-linecap="round"><g transform="translate(453.5299970145155 263.69799876942034) rotate(0 -46.95761336059746 1.331253558642345)"><path d="M-0.76 0.7 C-16.66 1.15, -78.7 2.5, -94.2 2.64 M1.03 0.03 C-15.09 0.15, -79.1 0.54, -94.95 0.99" stroke="#000000" stroke-width="1" fill="none"></path></g><g transform="translate(453.5299970145155 263.69799876942034) rotate(0 -46.95761336059746 1.331253558642345)"><path d="M-65.75 -9.08 C-76.62 -4.23, -89.69 -1.38, -93.54 -0.24 M-66.59 -10.23 C-74.27 -6.6, -82.69 -3.62, -94.5 1.39" stroke="#000000" stroke-width="1" fill="none"></path></g><g transform="translate(453.5299970145155 263.69799876942034) rotate(0 -46.95761336059746 1.331253558642345)"><path d="M-65.43 11.44 C-76.43 8.08, -89.62 2.73, -93.54 -0.24 M-66.27 10.29 C-74.23 8.15, -82.73 5.36, -94.5 1.39" stroke="#000000" stroke-width="1" fill="none"></path></g></g><mask></mask><g stroke-linecap="round"><g transform="translate(1371.49609375 266.03125) rotate(0 64.20703125 0.011936438421798812)"><path d="M0 0 C21.4 0, 107.01 0.02, 128.41 0.02" stroke="#000000" stroke-width="1.5" fill="none" stroke-dasharray="8 9"></path></g><g transform="translate(1371.49609375 266.03125) rotate(0 64.20703125 0.011936438421798812)"><path d="M100.22 10.28 C108.62 7.23, 117.01 4.17, 128.41 0.02" stroke="#000000" stroke-width="1.5" fill="none"></path></g><g transform="translate(1371.49609375 266.03125) rotate(0 64.20703125 0.011936438421798812)"><path d="M100.23 -10.24 C108.62 -7.19, 117.01 -4.13, 128.41 0.02" stroke="#000000" stroke-width="1.5" fill="none"></path></g></g><mask></mask><g transform="translate(1402.21484375 237.046875) rotate(0 32.5 12.5)"><text x="0" y="18" font-family="Virgil, Segoe UI Emoji" font-size="20px" fill="#000000" text-anchor="start" style="white-space: pre;" direction="ltr">Hooks*</text></g><g stroke-linecap="round" transform="translate(1509.7770728750677 32.298729117646985) rotate(0 77 82)"><path d="M0 0 C46.46 0, 92.92 0, 154 0 M154 0 C154 38.84, 154 77.68, 154 164 M154 164 C92.85 164, 31.71 164, 0 164 M0 164 C0 123.13, 0 82.26, 0 0" stroke="#495057" stroke-width="1.5" fill="none" stroke-dasharray="8 9"></path></g><g transform="translate(1515.7770728750677 54.298729117646985) rotate(0 71 60)"><text x="71" y="14" font-family="Virgil, Segoe UI Emoji" font-size="16px" fill="#000000" text-anchor="middle" style="white-space: pre;" direction="ltr">*Content </text><text x="71" y="34" font-family="Virgil, Segoe UI Emoji" font-size="16px" fill="#000000" text-anchor="middle" style="white-space: pre;" direction="ltr">creators may add</text><text x="71" y="54" font-family="Virgil, Segoe UI Emoji" font-size="16px" fill="#000000" text-anchor="middle" style="white-space: pre;" direction="ltr">hooks to the </text><text x="71" y="74" font-family="Virgil, Segoe UI Emoji" font-size="16px" fill="#000000" text-anchor="middle" style="white-space: pre;" direction="ltr">steps, so on </text><text x="71" y="94" font-family="Virgil, Segoe UI Emoji" font-size="16px" fill="#000000" text-anchor="middle" style="white-space: pre;" direction="ltr">completion will </text><text x="71" y="114" font-family="Virgil, Segoe UI Emoji" font-size="16px" fill="#000000" text-anchor="middle" style="white-space: pre;" direction="ltr">make that calls.</text></g><g stroke-linecap="round" transform="translate(1510.71875 187.59019886363637) rotate(0 78.9453125 77.205078125)"><path d="M32 0 L133.39 0.5 L139.89 2 L145.39 4.5 L149.89 8 L153.39 12.5 L155.89 18 L157.39 24.5 L157.89 32 L157.39 129.91 L155.89 136.41 L153.39 141.91 L149.89 146.41 L145.39 149.91 L139.89 152.41 L133.39 153.91 L125.89 154.41 L24.5 153.91 L18 152.41 L12.5 149.91 L8 146.41 L4.5 141.91 L2 136.41 L0.5 129.91 L0 122.41 L0.5 24.5 L2 18 L4.5 12.5 L8 8 L12.5 4.5 L18 2 L24.5 0.5 L32 0" stroke="none" stroke-width="0" fill="#ced4da"></path><path d="M32 0 M32 0 C52.39 0, 72.78 0, 125.89 0 M125.89 0 C147.22 0, 157.89 10.67, 157.89 32 M157.89 32 C157.89 50.63, 157.89 69.26, 157.89 122.41 M157.89 122.41 C157.89 143.74, 147.22 154.41, 125.89 154.41 M125.89 154.41 C97.75 154.41, 69.61 154.41, 32 154.41 M32 154.41 C10.67 154.41, 0 143.74, 0 122.41 M0 122.41 C0 99.66, 0 76.9, 0 32 M0 32 C0 10.67, 10.67 0, 32 0" stroke="#000000" stroke-width="1.5" fill="none" stroke-dasharray="8 9"></path></g><g transform="translate(1542.6640625 239.79527698863637) rotate(0 47 25)"><text x="47" y="18" font-family="Virgil, Segoe UI Emoji" font-size="20px" fill="#000000" text-anchor="middle" style="white-space: pre;" direction="ltr">External </text><text x="47" y="43" font-family="Virgil, Segoe UI Emoji" font-size="20px" fill="#000000" text-anchor="middle" style="white-space: pre;" direction="ltr">Services</text></g></svg>